<svg width="39" height="38" viewBox="0 0 39 38" fill="none" xmlns="http://www.w3.org/2000/svg">
<g clip-path="url(#clip0_423_118)">
<path d="M10.5459 13.0206C11.2085 13.0262 11.858 12.8356 12.4119 12.4729C12.9659 12.1102 13.3995 11.5917 13.6577 10.9832C13.916 10.3746 13.9874 9.70322 13.8628 9.05415C13.7382 8.40508 13.4233 7.80748 12.9579 7.33701C12.4925 6.86655 11.8976 6.54438 11.2485 6.41132C10.5993 6.27825 9.92523 6.34026 9.31148 6.58951C8.69772 6.83875 8.17194 7.26401 7.80071 7.81144C7.42948 8.35887 7.2295 9.00384 7.22609 9.66469C7.22304 10.5478 7.57038 11.3963 8.19231 12.025C8.81424 12.6537 9.66029 13.0116 10.5459 13.0206V13.0206Z" stroke="black" stroke-miterlimit="10"/>
<path d="M6.9869 16.4617L7.05523 15.9677C7.02106 16.3879 6.92426 16.7059 6.86162 17.1999C6.77621 17.8075 6.67941 18.4094 6.59399 19.017C6.59399 19.2101 6.594 19.2101 6.87301 19.4883C6.9869 19.2498 7.09509 19.0057 7.22036 18.7785C7.27551 18.6771 7.34885 18.5867 7.43674 18.5116L6.75343 18.2277C6.82176 17.6485 6.90149 17.0466 6.9869 16.4617Z" stroke="black" stroke-miterlimit="10"/>
<path d="M4.44144 14.0938C4.98026 14.0865 5.51434 14.1949 6.00736 14.4118C6.57679 14.7014 7.05511 15.1727 7.0608 15.5816C7.0608 15.7235 7.0608 15.8428 7.0608 15.962L6.99247 16.4561C6.90706 17.0239 6.82734 17.6315 6.74762 18.2164L7.43093 18.5003C7.50534 18.4392 7.59267 18.3957 7.68637 18.373C7.78006 18.3504 7.87768 18.3493 7.97188 18.3697C8.10355 18.3858 8.22899 18.4348 8.33652 18.5122C8.44405 18.5897 8.53017 18.693 8.58686 18.8126C10.1051 19.139 11.6809 19.0839 13.1724 18.6521C14.664 18.2203 16.0244 17.4255 17.1314 16.3391C18.2384 15.2528 19.0571 13.909 19.5139 12.4287C19.9707 10.9484 20.0512 9.37806 19.7482 7.85903C19.4452 6.34 18.7681 4.91994 17.778 3.72665C16.788 2.53337 15.5159 1.60431 14.0763 1.0231C12.6367 0.441887 11.0747 0.22676 9.53102 0.397079C7.98732 0.567398 6.51032 1.11782 5.23294 1.9988C2.26054 4.07143 0.950859 7.00717 1.24696 10.6186C1.3605 11.9628 1.78334 13.2628 2.48261 14.4175C3.1022 14.1619 3.77228 14.0511 4.44144 14.0938V14.0938ZM10.5514 6.34279C11.2153 6.3383 11.8655 6.53073 12.4195 6.89562C12.9735 7.26052 13.4061 7.78141 13.6626 8.3921C13.919 9.00279 13.9875 9.67571 13.8595 10.3254C13.7315 10.975 13.4127 11.572 12.9437 12.0406C12.4746 12.5091 11.8765 12.828 11.2253 12.9568C10.574 13.0855 9.89911 13.0183 9.28628 12.7637C8.67344 12.509 8.15036 12.0784 7.7835 11.5266C7.41664 10.9748 7.22256 10.3267 7.22594 9.66467C7.22893 8.78556 7.58007 7.94321 8.2029 7.32105C8.82573 6.69888 9.66982 6.34728 10.5514 6.34279V6.34279Z" stroke="black" stroke-miterlimit="10"/>
<path d="M38.7097 33.0541C38.7137 32.8736 38.6806 32.6942 38.6125 32.5269C38.5444 32.3596 38.4426 32.208 38.3135 32.0814C38.1845 31.9548 38.0308 31.8559 37.8619 31.7907C37.693 31.7256 37.5126 31.6956 37.3317 31.7026C36.2782 31.7026 35.2191 31.7026 34.1656 31.6686C32.7689 31.6681 31.3753 31.5369 30.0031 31.2768C29.1684 31.1442 28.383 30.7957 27.7254 30.266C27.0464 29.6312 26.5911 28.7947 26.4271 27.8811C26.1034 26.1974 25.9583 24.4844 25.9944 22.7705C25.9976 22.7216 26.0092 22.6736 26.0285 22.6285C26.4499 21.6916 26.7574 20.7149 27.1674 19.7893C27.2631 19.5787 27.3338 19.3576 27.3781 19.1306C27.3988 19.0059 27.3804 18.8779 27.3253 18.7641C27.2703 18.6502 27.1813 18.5561 27.0706 18.4946C26.9859 18.4323 26.8882 18.3899 26.7847 18.3708C26.6812 18.3516 26.5747 18.3562 26.4733 18.384C26.3718 18.4119 26.278 18.4625 26.199 18.5318C26.12 18.6011 26.0578 18.6874 26.0172 18.7842C25.8862 19.0114 25.7837 19.2555 25.6641 19.494C25.3566 19.2158 25.3566 19.2158 25.3851 19.0227C25.4762 18.4151 25.573 17.8132 25.6527 17.2056C25.768 16.6749 25.8385 16.1354 25.8634 15.5929C25.8634 15.1841 25.4136 14.7128 24.81 14.4232C24.3173 14.2053 23.783 14.0968 23.2441 14.1052C22.4262 14.0362 21.6069 14.2206 20.898 14.6333C20.2923 14.9565 19.7952 15.4501 19.4688 16.0529C19.1962 16.5383 19.0771 17.0945 19.1271 17.6485C19.3264 18.4492 19.52 19.0511 19.7876 19.8291C19.9125 20.1947 19.976 20.5784 19.9755 20.9647C19.9755 23.4746 19.9755 25.9788 20.1407 28.4773C20.2134 29.7602 20.404 31.0337 20.7101 32.2818C20.9451 33.3114 21.4146 34.2732 22.0824 35.0927C22.9138 36.0147 24.0056 36.664 25.2143 36.9552C26.9475 37.3729 28.7214 37.5995 30.5042 37.6309C31.9278 37.6934 33.3514 37.7104 34.7635 37.7218H37.2861C37.4776 37.7336 37.6695 37.7045 37.8487 37.6362C38.028 37.568 38.1905 37.4623 38.3254 37.3262C38.4603 37.1901 38.5643 37.0267 38.6306 36.8472C38.6969 36.6676 38.7239 36.476 38.7097 36.2851C38.7154 35.2062 38.7154 34.116 38.7097 33.0541Z" stroke="black" stroke-miterlimit="10"/>
<path d="M18.5121 31.7026C17.4587 31.7026 16.3996 31.7026 15.3461 31.6686C13.9457 31.6709 12.5483 31.5416 11.1722 31.2824C10.3375 31.1462 9.55259 30.7959 8.89452 30.266C8.2173 29.6306 7.76393 28.7941 7.60192 27.8811C7.27816 26.1974 7.13311 24.4844 7.16916 22.7705C7.16956 22.7212 7.18124 22.6726 7.20332 22.6285C7.61901 21.6916 7.93219 20.7149 8.34218 19.7893C8.44296 19.5806 8.51388 19.3589 8.55287 19.1306C8.57581 19.0064 8.55902 18.8782 8.50486 18.7641C8.4507 18.6499 8.36191 18.5557 8.25107 18.4946C8.1594 18.4406 8.05932 18.4022 7.95497 18.3811C7.86076 18.3606 7.76315 18.3618 7.66945 18.3844C7.57575 18.407 7.48842 18.4505 7.41401 18.5117C7.33576 18.5908 7.27214 18.683 7.2261 18.7842C7.10083 19.0114 6.99264 19.2555 6.87875 19.494C6.57126 19.2158 6.57126 19.2158 6.59973 19.0227C6.68515 18.4151 6.78195 17.8132 6.86736 17.2056C6.93 16.7116 7.0268 16.3936 7.06097 15.9734C7.06097 15.8542 7.06097 15.7349 7.06097 15.593C7.06097 15.1841 6.60543 14.7128 6.00753 14.4232C5.51451 14.2063 4.98042 14.0979 4.44161 14.1052C3.76676 14.0599 3.09054 14.1706 2.4657 14.4289C2.33703 14.487 2.21326 14.5554 2.09557 14.6333C1.48853 14.9567 0.989702 15.4502 0.660618 16.0529C0.381155 16.5463 0.25807 17.1125 0.307572 17.6769C0.489037 18.4105 0.707597 19.1345 0.962413 19.8461C1.0873 20.2118 1.1508 20.5955 1.15032 20.9818C1.15032 23.4916 1.15032 25.9958 1.31546 28.4943C1.3882 29.7772 1.57881 31.0507 1.88488 32.2989C2.11181 33.3297 2.57575 34.2939 3.24012 35.1154C4.07752 36.0339 5.17609 36.6758 6.38904 36.9552C8.12417 37.3729 9.90002 37.5995 11.6847 37.6309C13.1026 37.6934 14.5318 37.7104 15.944 37.7218H18.4609C18.6526 37.7335 18.8447 37.7044 19.0242 37.6362C19.2037 37.568 19.3666 37.4623 19.5019 37.3263C19.6372 37.1903 19.7418 37.0271 19.8088 36.8475C19.8757 36.668 19.9035 36.4762 19.8901 36.2851C19.8901 35.2119 19.8901 34.1387 19.8901 33.0598C19.895 32.8788 19.8625 32.6988 19.7947 32.5308C19.7269 32.3628 19.6253 32.2105 19.4961 32.0833C19.367 31.9561 19.213 31.8567 19.0437 31.7912C18.8745 31.7257 18.6935 31.6956 18.5121 31.7026V31.7026Z" stroke="black" stroke-miterlimit="10"/>
<path d="M21.3422 6.29169C25.0207 6.29169 28.6992 6.29169 32.3834 6.29169C32.5827 6.29169 32.6339 6.34279 32.6339 6.54154C32.6339 10.1984 32.6339 13.8553 32.6339 17.5122C32.6154 17.7105 32.641 17.9104 32.7089 18.0976C32.7768 18.2848 32.8854 18.4548 33.0268 18.5953C33.1683 18.7358 33.3391 18.8434 33.5271 18.9105C33.7152 18.9775 33.9157 19.0022 34.1144 18.983H37.2007C37.3973 19.0003 37.5952 18.9745 37.7807 18.9073C37.9662 18.8401 38.1346 18.7332 38.2741 18.594C38.4137 18.4549 38.5209 18.2869 38.5883 18.102C38.6557 17.917 38.6816 17.7196 38.6641 17.5236V1.74895C38.6845 1.5513 38.6606 1.3516 38.594 1.16432C38.5275 0.977029 38.42 0.806837 38.2794 0.666068C38.1388 0.525299 37.9686 0.417476 37.781 0.3504C37.5934 0.283324 37.3933 0.258676 37.195 0.278241H21.3194C21.1331 0.267598 20.9467 0.296246 20.7723 0.362318C20.5979 0.428391 20.4395 0.530401 20.3073 0.661688C20.1751 0.792976 20.0721 0.950589 20.0052 1.12424C19.9382 1.29789 19.9087 1.48367 19.9186 1.66945V4.8948C19.9146 5.02658 19.928 5.15831 19.9585 5.28661C20.036 5.58842 20.2166 5.85386 20.4691 6.03729C20.7216 6.22072 21.0303 6.31067 21.3422 6.29169V6.29169Z" stroke="black" stroke-miterlimit="10"/>
</g>
<defs>
<clipPath id="clip0_423_118">
<rect width="39" height="38" fill="white"/>
</clipPath>
</defs>
</svg>
